<!DOCTYPE svg PUBLIC "-//W3C//DTD SVG 20010904//EN" "http://www.w3.org/TR/2001/REC-SVG-20010904/DTD/svg10.dtd">
<svg version="1.0" xmlns="http://www.w3.org/2000/svg" width="200px" height="200px" viewBox="0 0 2000 2000" preserveAspectRatio="xMidYMid meet">
<g id="layer1" fill="#000000" stroke="none">
 <path d="M160 1560 l0 -280 280 0 280 0 0 280 0 280 -280 0 -280 0 0 -280z m480 0 l0 -200 -200 0 -200 0 0 200 0 200 200 0 200 0 0 -200z"/>
 <path d="M320 1560 l0 -120 120 0 120 0 0 120 0 120 -120 0 -120 0 0 -120z"/>
 <path d="M800 1720 l0 -120 40 0 40 0 0 -40 0 -40 -40 0 -40 0 0 -160 0 -160 80 0 80 0 0 -40 0 -40 40 0 40 0 0 40 0 40 -40 0 -40 0 0 40 0 40 80 0 80 0 0 -40 0 -40 40 0 40 0 0 40 0 40 40 0 40 0 0 -40 0 -40 40 0 40 0 0 -40 0 -40 40 0 40 0 0 -80 0 -80 -80 0 -80 0 0 40 0 40 -80 0 -80 0 0 -40 0 -40 -80 0 -80 0 0 40 0 40 -40 0 -40 0 0 40 0 40 -40 0 -40 0 0 -40 0 -40 -160 0 -160 0 0 40 0 40 120 0 120 0 0 40 0 40 -200 0 -200 0 0 -40 0 -40 40 0 40 0 0 -40 0 -40 -80 0 -80 0 0 -40 0 -40 -40 0 -40 0 0 -80 0 -80 120 0 120 0 0 40 0 40 40 0 40 0 0 -40 0 -40 160 0 160 0 0 -80 0 -80 40 0 40 0 0 40 0 40 40 0 40 0 0 -80 0 -80 -40 0 -40 0 0 -80 0 -80 -40 0 -40 0 0 -40 0 -40 40 0 40 0 0 -40 0 -40 40 0 40 0 0 -40 0 -40 80 0 80 0 0 40 0 40 -40 0 -40 0 0 40 0 40 40 0 40 0 0 40 0 40 40 0 40 0 0 40 0 40 -40 0 -40 0 0 -40 0 -40 -40 0 -40 0 0 160 0 160 40 0 40 0 0 -40 0 -40 40 0 40 0 0 80 0 80 80 0 80 0 0 40 0 40 80 0 80 0 0 120 0 120 40 0 40 0 0 40 0 40 -40 0 -40 0 0 120 0 120 40 0 40 0 0 80 0 80 40 0 40 0 0 40 0 40 40 0 40 0 0 -40 0 -40 40 0 40 0 0 40 0 40 -40 0 -40 0 0 40 0 40 40 0 40 0 0 40 0 40 -80 0 -80 0 0 -80 0 -80 -40 0 -40 0 0 -40 0 -40 -40 0 -40 0 0 80 0 80 40 0 40 0 0 40 0 40 -80 0 -80 0 0 -160 0 -160 40 0 40 0 0 -40 0 -40 -80 0 -80 0 0 -40 0 -40 40 0 40 0 0 -40 0 -40 -80 0 -80 0 0 40 0 40 -80 0 -80 0 0 40 0 40 40 0 40 0 0 40 0 40 40 0 40 0 0 40 0 40 -40 0 -40 0 0 80 0 80 40 0 40 0 0 40 0 40 -80 0 -80 0 0 -80 0 -80 -40 0 -40 0 0 80 0 80 -40 0 -40 0 0 -80 0 -80 -40 0 -40 0 0 80 0 80 -40 0 -40 0 0 -120z m240 -80 l0 -40 40 0 40 0 0 -80 0 -80 -40 0 -40 0 0 -40 0 -40 -40 0 -40 0 0 80 0 80 40 0 40 0 0 40 0 40 -40 0 -40 0 0 40 0 40 40 0 40 0 0 -40z m480 -480 l0 -40 -40 0 -40 0 0 40 0 40 40 0 40 0 0 -40z m-1120 -240 l0 -40 -40 0 -40 0 0 40 0 40 40 0 40 0 0 -40z m160 0 l0 -40 -40 0 -40 0 0 40 0 40 40 0 40 0 0 -40z m240 0 l0 -40 -80 0 -80 0 0 40 0 40 80 0 80 0 0 -40z m480 0 l0 -40 -40 0 -40 0 0 -40 0 -40 -40 0 -40 0 0 40 0 40 40 0 40 0 0 40 0 40 40 0 40 0 0 -40z m-320 -80 l0 -40 40 0 40 0 0 -40 0 -40 -40 0 -40 0 0 40 0 40 -40 0 -40 0 0 40 0 40 40 0 40 0 0 -40z"/>
 <path d="M1760 1480 l0 -40 40 0 40 0 0 40 0 40 -40 0 -40 0 0 -40z"/>
 <path d="M1600 1320 l0 -40 40 0 40 0 0 -40 0 -40 80 0 80 0 0 80 0 80 -120 0 -120 0 0 -40z"/>
 <path d="M160 1160 l0 -40 40 0 40 0 0 40 0 40 -40 0 -40 0 0 -40z"/>
 <path d="M1680 1080 l0 -40 -40 0 -40 0 0 -40 0 -40 80 0 80 0 0 -40 0 -40 40 0 40 0 0 80 0 80 -40 0 -40 0 0 40 0 40 -40 0 -40 0 0 -40z"/>
 <path d="M1600 840 l0 -40 40 0 40 0 0 40 0 40 -40 0 -40 0 0 -40z"/>
 <path d="M160 440 l0 -280 280 0 280 0 0 280 0 280 -280 0 -280 0 0 -280z m480 0 l0 -200 -200 0 -200 0 0 200 0 200 200 0 200 0 0 -200z"/>
 <path d="M320 440 l0 -120 120 0 120 0 0 120 0 120 -120 0 -120 0 0 -120z"/>
 <path d="M1280 440 l0 -280 280 0 280 0 0 280 0 280 -280 0 -280 0 0 -280z m480 0 l0 -200 -200 0 -200 0 0 200 0 200 200 0 200 0 0 -200z"/>
 <path d="M1440 440 l0 -120 120 0 120 0 0 120 0 120 -120 0 -120 0 0 -120z"/>
 </g>
<g id="layer2" fill="#ffffff" stroke="none">
 <path d="M0 1000 l0 -1000 1000 0 1000 0 0 1000 0 1000 -1000 0 -1000 0 0 -1000z m720 560 l0 -280 -280 0 -280 0 0 280 0 280 280 0 280 0 0 -280z m160 200 l0 -80 40 0 40 0 0 80 0 80 40 0 40 0 0 -80 0 -80 40 0 40 0 0 80 0 80 80 0 80 0 0 -40 0 -40 -40 0 -40 0 0 -80 0 -80 40 0 40 0 0 -40 0 -40 -40 0 -40 0 0 -40 0 -40 -40 0 -40 0 0 -40 0 -40 80 0 80 0 0 -40 0 -40 80 0 80 0 0 40 0 40 -40 0 -40 0 0 40 0 40 80 0 80 0 0 40 0 40 -40 0 -40 0 0 160 0 160 80 0 80 0 0 -40 0 -40 -40 0 -40 0 0 -80 0 -80 40 0 40 0 0 40 0 40 40 0 40 0 0 80 0 80 80 0 80 0 0 -40 0 -40 -40 0 -40 0 0 -40 0 -40 40 0 40 0 0 -40 0 -40 -40 0 -40 0 0 40 0 40 -40 0 -40 0 0 -40 0 -40 -40 0 -40 0 0 -80 0 -80 -40 0 -40 0 0 -120 0 -120 40 0 40 0 0 -40 0 -40 -40 0 -40 0 0 -120 0 -120 -80 0 -80 0 0 -40 0 -40 -80 0 -80 0 0 -80 0 -80 -40 0 -40 0 0 40 0 40 -40 0 -40 0 0 -160 0 -160 40 0 40 0 0 40 0 40 40 0 40 0 0 -40 0 -40 -40 0 -40 0 0 -40 0 -40 -40 0 -40 0 0 -40 0 -40 40 0 40 0 0 -40 0 -40 -80 0 -80 0 0 40 0 40 -40 0 -40 0 0 40 0 40 -40 0 -40 0 0 40 0 40 40 0 40 0 0 80 0 80 40 0 40 0 0 80 0 80 -40 0 -40 0 0 -40 0 -40 -40 0 -40 0 0 80 0 80 -160 0 -160 0 0 40 0 40 -40 0 -40 0 0 -40 0 -40 -120 0 -120 0 0 80 0 80 40 0 40 0 0 40 0 40 80 0 80 0 0 40 0 40 -40 0 -40 0 0 40 0 40 200 0 200 0 0 -40 0 -40 -120 0 -120 0 0 -40 0 -40 160 0 160 0 0 40 0 40 40 0 40 0 0 -40 0 -40 40 0 40 0 0 -40 0 -40 80 0 80 0 0 40 0 40 80 0 80 0 0 -40 0 -40 80 0 80 0 0 80 0 80 -40 0 -40 0 0 40 0 40 -40 0 -40 0 0 40 0 40 -40 0 -40 0 0 -40 0 -40 -40 0 -40 0 0 40 0 40 -80 0 -80 0 0 -40 0 -40 40 0 40 0 0 -40 0 -40 -40 0 -40 0 0 40 0 40 -80 0 -80 0 0 160 0 160 40 0 40 0 0 40 0 40 -40 0 -40 0 0 120 0 120 40 0 40 0 0 -80z m960 -280 l0 -40 -40 0 -40 0 0 40 0 40 40 0 40 0 0 -40z m0 -200 l0 -80 -80 0 -80 0 0 40 0 40 -40 0 -40 0 0 40 0 40 120 0 120 0 0 -80z m-1600 -120 l0 -40 -40 0 -40 0 0 40 0 40 40 0 40 0 0 -40z m1520 -80 l0 -40 40 0 40 0 0 -80 0 -80 -40 0 -40 0 0 40 0 40 -80 0 -80 0 0 40 0 40 40 0 40 0 0 40 0 40 40 0 40 0 0 -40z m-80 -240 l0 -40 -40 0 -40 0 0 40 0 40 40 0 40 0 0 -40z m-960 -400 l0 -280 -280 0 -280 0 0 280 0 280 280 0 280 0 0 -280z m1120 0 l0 -280 -280 0 -280 0 0 280 0 280 280 0 280 0 0 -280z"/>
 <path d="M240 1560 l0 -200 200 0 200 0 0 200 0 200 -200 0 -200 0 0 -200z m320 0 l0 -120 -120 0 -120 0 0 120 0 120 120 0 120 0 0 -120z"/>
 <path d="M960 1640 l0 -40 40 0 40 0 0 -40 0 -40 -40 0 -40 0 0 -80 0 -80 40 0 40 0 0 40 0 40 40 0 40 0 0 80 0 80 -40 0 -40 0 0 40 0 40 -40 0 -40 0 0 -40z"/>
 <path d="M1440 1160 l0 -40 40 0 40 0 0 40 0 40 -40 0 -40 0 0 -40z"/>
 <path d="M320 920 l0 -40 40 0 40 0 0 40 0 40 -40 0 -40 0 0 -40z"/>
 <path d="M480 920 l0 -40 40 0 40 0 0 40 0 40 -40 0 -40 0 0 -40z"/>
 <path d="M640 920 l0 -40 80 0 80 0 0 40 0 40 -80 0 -80 0 0 -40z"/>
 <path d="M1200 920 l0 -40 -40 0 -40 0 0 -40 0 -40 40 0 40 0 0 40 0 40 40 0 40 0 0 40 0 40 -40 0 -40 0 0 -40z"/>
 <path d="M880 840 l0 -40 40 0 40 0 0 -40 0 -40 40 0 40 0 0 40 0 40 -40 0 -40 0 0 40 0 40 -40 0 -40 0 0 -40z"/>
 <path d="M240 440 l0 -200 200 0 200 0 0 200 0 200 -200 0 -200 0 0 -200z m320 0 l0 -120 -120 0 -120 0 0 120 0 120 120 0 120 0 0 -120z"/>
 <path d="M1360 440 l0 -200 200 0 200 0 0 200 0 200 -200 0 -200 0 0 -200z m320 0 l0 -120 -120 0 -120 0 0 120 0 120 120 0 120 0 0 -120z"/>
 </g>

</svg>